<?xml version="1.0" standalone="no"?>
<!DOCTYPE svg PUBLIC "-//W3C//DTD SVG 20010904//EN"
 "http://www.w3.org/TR/2001/REC-SVG-20010904/DTD/svg10.dtd">
<svg version="1.0" xmlns="http://www.w3.org/2000/svg"
 width="849.000000pt" height="849.000000pt" viewBox="0 0 849.000000 849.000000"
 preserveAspectRatio="xMidYMid meet">
<metadata>
Created by potrace 1.11, written by Peter Selinger 2001-2013
</metadata>
<g transform="translate(0.000000,849.000000) scale(0.100000,-0.100000)"
fill="#000000" stroke="none">
<path d="M3478 8152 l-298 -341 0 -350 0 -351 183 0 c142 0 194 4 230 16 59
20 139 91 166 148 21 42 21 52 19 630 l-3 588 -297 -340z"/>
<path d="M3890 7475 l0 -335 555 0 555 0 0 -1545 0 -1545 385 0 385 0 0 1545
0 1545 561 0 561 0 -4 188 -3 187 -32 65 c-41 83 -110 152 -193 193 l-65 32
-1352 3 -1353 2 0 -335z"/>
<path d="M3417 6960 c-91 -16 -178 -86 -221 -179 -21 -46 -21 -47 -24 -1388
l-2 -1343 305 0 305 0 0 1460 0 1460 -157 -1 c-87 -1 -179 -5 -206 -9z"/>
<path d="M2095 3938 c-619 -62 -1085 -368 -1324 -869 -132 -276 -196 -588
-208 -1004 -20 -718 136 -1235 480 -1592 130 -135 242 -219 392 -293 262 -130
506 -180 884 -180 432 0 769 87 1054 273 336 219 549 591 602 1049 l6 58 -378
0 -379 0 -23 -77 c-63 -216 -172 -378 -319 -474 -147 -96 -319 -142 -532 -141
-148 0 -230 12 -353 52 -119 38 -203 88 -294 174 -204 192 -313 436 -354 795
-16 142 -7 516 16 641 33 182 92 352 167 478 43 73 167 204 241 254 154 104
324 156 542 165 223 9 393 -23 548 -104 99 -52 191 -158 292 -337 43 -76 91
-123 163 -158 l67 -33 298 -3 299 -3 -7 58 c-85 740 -569 1196 -1349 1272
-128 13 -402 12 -531 -1z"/>
<path d="M4863 3463 l4 -378 386 -1500 c212 -825 386 -1501 387 -1502 0 -2
179 -3 399 -3 l398 0 77 303 c43 166 214 844 381 1507 l304 1205 0 -1507 1
-1508 360 0 360 0 0 1880 0 1880 -572 -2 -573 -3 -370 -1422 c-203 -782 -371
-1421 -372 -1419 -1 1 -162 618 -358 1371 -196 754 -363 1394 -371 1423 l-15
52 -215 0 -214 0 3 -377z"/>
<path d="M4498 2703 l-358 -376 0 -1123 0 -1124 360 0 360 0 0 1500 c0 825 -1
1500 -2 1500 -2 0 -164 -170 -360 -377z"/>
</g>
</svg>
