<?xml version="1.0" standalone="no"?>
<!DOCTYPE svg PUBLIC "-//W3C//DTD SVG 20010904//EN"
 "http://www.w3.org/TR/2001/REC-SVG-20010904/DTD/svg10.dtd">
<svg version="1.0" xmlns="http://www.w3.org/2000/svg"
 width="600.000000pt" height="600.000000pt" viewBox="0 0 600.000000 600.000000"
 preserveAspectRatio="xMidYMid meet">
<metadata>
Created by potrace 1.11, written by Peter Selinger 2001-2013
</metadata>
<g transform="translate(0.000000,600.000000) scale(0.100000,-0.100000)"
fill="#000000" stroke="none">
<path d="M1325 5258 c-3 -7 -4 -1014 -3 -2238 l3 -2225 455 0 455 0 5 785 5
785 485 6 c267 3 532 11 590 18 133 15 282 39 340 56 25 7 59 16 75 19 82 19
294 108 370 157 17 10 37 22 45 26 32 14 176 129 229 182 138 137 240 300 301
481 101 297 90 768 -25 1035 -117 272 -285 486 -487 622 -175 117 -384 208
-553 242 -22 5 -60 13 -85 19 -163 40 -224 42 -1228 42 -769 0 -974 -3 -977
-12z m1985 -761 c154 -52 230 -96 314 -183 125 -129 183 -278 193 -494 4 -106
2 -138 -16 -212 -38 -157 -113 -271 -228 -350 -84 -57 -158 -86 -288 -113 -69
-14 -148 -16 -560 -13 l-480 3 -3 680 c-1 374 0 686 3 693 4 11 102 12 507 10
457 -3 508 -5 558 -21z"/>
</g>
</svg>
